<svg width="50" height="50" viewBox="0 0 50 50" fill="none" xmlns="http://www.w3.org/2000/svg">
<path d="M49.9172 26.1863C49.7361 21.8737 44.5394 19.3367 41.4899 17.0548C39.4775 15.5487 37.465 14.0425 35.4525 12.5372C33.7398 11.2558 31.8803 10.5065 29.8366 11.7856C28.9556 12.3375 28.092 12.9297 27.2391 13.5453C27.2467 10.3782 27.2741 7.20961 27.2353 4.04328C27.214 2.30563 26.638 0.621118 24.713 0.178545C23.7285 -0.0476755 22.5727 0.0980775 21.5775 0.0980775C17.1341 0.0980775 12.6907 0.0980775 8.24731 0.0980775C5.5942 0.0980775 0.73993 -0.804528 0.143418 2.86663C-0.149512 4.6688 0.0970058 6.67214 0.0970058 8.48571C0.0970058 12.7437 0.0970058 17.0009 0.0970058 21.2588C0.0970058 29.2585 0.0970058 37.2583 0.0970058 45.258C0.0970058 46.1044 0.000376909 47.0632 0.310807 47.8663C1.04199 49.7573 2.80109 49.9562 4.54498 49.9562C8.63002 49.9562 12.7143 49.9562 16.7993 49.9555C16.9683 49.9555 17.1121 49.9167 17.2346 49.8537C17.596 49.916 17.9695 49.9509 18.3477 49.9555C27.7907 50.0557 37.2398 49.9555 46.6828 49.9555C46.819 49.9555 46.9369 49.9289 47.0434 49.8871C49.084 49.5197 49.9164 47.9612 49.9164 45.9609C49.9164 43.8331 49.9164 41.7052 49.9164 39.5774C49.9172 35.1281 50.1036 30.6333 49.9172 26.1863ZM3.34434 48.0592C1.97708 47.8208 1.99915 46.862 1.99915 45.8562C1.99915 39.1029 1.99915 32.349 1.99915 25.5957C1.99915 18.5685 1.99915 11.5412 1.99915 4.51394C1.99915 4.13969 1.93143 3.6956 1.99915 3.3259C2.30958 1.62697 4.12651 1.99742 5.3842 1.99742C9.38023 1.99742 13.3762 1.99742 17.3723 1.99742C19.2128 1.99742 21.0533 1.99742 22.8938 1.99742C23.2324 1.99742 23.6417 1.93745 23.978 1.99742C25.0912 2.19479 25.2654 2.95544 25.3324 3.8626C25.5994 7.47986 25.3324 11.2079 25.3324 14.8373C25.3324 14.8821 25.34 14.9216 25.3445 14.9626C23.523 16.3617 21.7358 17.8177 19.9318 19.1902C19.6259 18.6603 19.0583 18.299 18.4017 18.299C17.4225 18.299 16.6289 19.0908 16.6289 20.0678C16.6289 20.5263 16.8085 20.9408 17.0953 21.255C16.5361 21.6915 16.0141 22.1607 15.6124 22.6943C14.3821 24.3318 14.3654 26.0178 14.3654 27.9248C14.3654 33.0717 14.3654 38.2186 14.3654 43.3655C14.3654 44.6522 14.1523 46.1666 14.446 47.4405C14.4985 47.6667 14.5708 47.8694 14.6545 48.0592C12.1558 48.0592 9.65642 48.0592 7.15776 48.0592C5.9518 48.0584 4.53737 48.2664 3.34434 48.0592ZM37.8005 48.0584C34.0282 48.0584 30.2559 48.0584 26.4835 48.0584V37.4966C26.4835 36.7641 27.0808 36.1681 27.815 36.1681H36.469C37.2033 36.1681 37.8005 36.7641 37.8005 37.4966V48.0584ZM46.6835 48.0584C44.3568 48.0584 42.0294 48.0584 39.7027 48.0584V37.4966C39.7027 35.7172 38.2525 34.2703 36.469 34.2703H27.815C26.0316 34.2703 24.5814 35.7172 24.5814 37.4966V48.0584C24.0884 48.0584 23.5961 48.0584 23.103 48.0584C21.5227 48.0584 19.9272 48.1229 18.3477 48.0584C18.1095 48.0485 17.8417 48.1024 17.6066 48.0584C16.4904 47.8496 16.3314 47.0829 16.2683 46.1796C15.9746 41.977 16.2683 37.6507 16.2683 33.4383C16.2683 31.3932 16.2683 29.3474 16.2683 27.3023C16.2683 25.7028 16.4973 24.2908 17.806 23.1453C20.9932 20.357 24.6856 17.9968 28.0768 15.4598C29.1085 14.6878 30.4522 13.2614 31.7814 13.045C33.2917 12.7991 34.8469 14.4426 35.9585 15.2746C39.4265 17.8693 43.1516 20.2963 46.4378 23.1164C47.9291 24.3963 48.0143 25.9411 48.0143 27.7054C48.0143 30.1088 48.0143 32.5114 48.0143 34.9148C48.0143 37.6348 48.0143 40.354 48.0143 43.074C48.015 44.3622 48.6329 47.8603 46.6835 48.0584Z" fill="white"/>
<path d="M36.469 24.5042H27.815C26.0316 24.5042 24.5814 25.9511 24.5814 27.7305V28.4296C24.5814 30.209 26.0316 31.6559 27.815 31.6559H36.469C38.2525 31.6559 39.7027 30.209 39.7027 28.4296V27.7305C39.7027 25.9511 38.2525 24.5042 36.469 24.5042ZM37.8005 28.4296C37.8005 29.1622 37.2033 29.7581 36.469 29.7581H27.815C27.0808 29.7581 26.4835 29.1622 26.4835 28.4296V27.7305C26.4835 26.9979 27.0808 26.402 27.815 26.402H36.469C37.2033 26.402 37.8005 26.9979 37.8005 27.7305V28.4296Z" fill="white"/>
<path d="M8.89859 11.2399C9.87768 11.2399 10.6714 10.448 10.6714 9.4711C10.6714 8.49424 9.87768 7.70233 8.89859 7.70233C7.9195 7.70233 7.12579 8.49424 7.12579 9.4711C7.12579 10.448 7.9195 11.2399 8.89859 11.2399Z" fill="white"/>
<path d="M18.4025 11.2399C19.3816 11.2399 20.1753 10.448 20.1753 9.4711C20.1753 8.49424 19.3816 7.70233 18.4025 7.70233C17.4234 7.70233 16.6297 8.49424 16.6297 9.4711C16.6297 10.448 17.4234 11.2399 18.4025 11.2399Z" fill="white"/>
<path d="M8.89859 21.8358C9.87768 21.8358 10.6714 21.0439 10.6714 20.067C10.6714 19.0902 9.87768 18.2982 8.89859 18.2982C7.9195 18.2982 7.12579 19.0902 7.12579 20.067C7.12579 21.0439 7.9195 21.8358 8.89859 21.8358Z" fill="white"/>
<path d="M8.89859 32.4317C9.87768 32.4317 10.6714 31.6398 10.6714 30.663C10.6714 29.6861 9.87768 28.8942 8.89859 28.8942C7.9195 28.8942 7.12579 29.6861 7.12579 30.663C7.12579 31.6398 7.9195 32.4317 8.89859 32.4317Z" fill="white"/>
<path d="M8.89859 43.0277C9.87768 43.0277 10.6714 42.2358 10.6714 41.2589C10.6714 40.282 9.87768 39.4901 8.89859 39.4901C7.9195 39.4901 7.12579 40.282 7.12579 41.2589C7.12579 42.2358 7.9195 43.0277 8.89859 43.0277Z" fill="white"/>
</svg>
