<svg width="50" height="50" viewBox="0 0 50 50" fill="none" xmlns="http://www.w3.org/2000/svg">
<path d="M48.442 33.176C48.2363 33.1227 48.0153 33.144 47.8272 33.2351C47.6392 33.3263 47.4994 33.4799 47.4386 33.6623L47.4005 33.7763C47.3391 33.959 47.3618 34.1558 47.4637 34.3236C47.5655 34.4914 47.7382 34.6165 47.9438 34.6713C48.0194 34.6911 48.0978 34.7012 48.1767 34.7013C48.3508 34.7015 48.5203 34.6517 48.6599 34.5593C48.7996 34.4669 48.9018 34.3369 48.9514 34.1887L48.9924 34.0634C49.0509 33.8809 49.026 33.6852 48.9229 33.519C48.8198 33.3528 48.6469 33.2295 48.442 33.176Z" fill="white"/>
<path d="M25 0C11.2151 0 7.65807e-07 9.96068 7.65807e-07 22.2038V27.7989C-0.000879253 30.9535 0.756699 34.0718 2.22206 36.9453C3.68742 39.8189 5.82678 42.3814 8.49704 44.4615C8.54918 44.5179 8.61111 44.5665 8.6805 44.6056C11.5976 46.842 15.0574 48.4491 18.7897 49.3011C22.5219 50.1532 26.4254 50.2272 30.1952 49.5174C33.965 48.8075 37.4989 47.3331 40.5207 45.2093C43.5426 43.0855 45.9706 40.3698 47.615 37.2745C47.6604 37.1892 47.6865 37.0967 47.6916 37.0025C47.6968 36.9082 47.681 36.8139 47.6452 36.7251C47.6093 36.6362 47.5541 36.5545 47.4827 36.4846C47.4113 36.4146 47.3251 36.3579 47.229 36.3176C47.133 36.2773 47.0289 36.2541 46.9227 36.2495C46.8166 36.2449 46.7104 36.2589 46.6104 36.2908C46.5103 36.3226 46.4183 36.3716 46.3396 36.4351C46.2609 36.4985 46.197 36.575 46.1516 36.6604C45.0261 38.7738 43.5048 40.7021 41.6526 42.3633V41.6576C41.6571 41.5607 41.6395 41.464 41.6009 41.3732C41.5623 41.2825 41.5034 41.1996 41.4278 41.1296C41.3522 41.0596 41.2615 41.0039 41.161 40.9658C41.0605 40.9278 40.9524 40.9082 40.8432 40.9082C40.734 40.9082 40.6259 40.9278 40.5254 40.9658C40.425 41.0039 40.3342 41.0596 40.2586 41.1296C40.183 41.1996 40.1241 41.2825 40.0855 41.3732C40.0469 41.464 40.0293 41.5607 40.0339 41.6576V43.6881C36.0347 46.6684 31.0311 48.3796 25.8143 48.5513V46.8542C25.8143 46.6637 25.7291 46.481 25.5774 46.3464C25.4258 46.2117 25.2201 46.136 25.0056 46.136C24.7912 46.136 24.5855 46.2117 24.4339 46.3464C24.2822 46.481 24.197 46.6637 24.197 46.8542V48.5513C18.955 48.3942 13.9263 46.669 9.92662 43.6555V41.6576C9.93118 41.5607 9.91362 41.464 9.875 41.3732C9.83638 41.2825 9.7775 41.1996 9.70189 41.1296C9.62629 41.0596 9.53553 41.0039 9.43506 40.9658C9.33459 40.9278 9.2265 40.9082 9.11728 40.9082C9.00805 40.9082 8.89996 40.9278 8.79949 40.9658C8.69902 41.0039 8.60826 41.0596 8.53266 41.1296C8.45705 41.1996 8.39817 41.2825 8.35955 41.3732C8.32093 41.464 8.30337 41.5607 8.30793 41.6576V42.3182C4.76388 39.1169 2.4875 34.9792 1.8219 30.5288C2.40654 31.8181 3.12663 33.0557 3.97262 34.225C4.09265 34.3778 4.27473 34.4833 4.48055 34.5193C4.68637 34.5553 4.89987 34.5189 5.07613 34.4179C5.25239 34.3169 5.37766 34.1591 5.42558 33.9777C5.4735 33.7963 5.44033 33.6055 5.33305 33.4454C2.89952 30.0948 1.60772 26.1911 1.61304 22.2038C1.61869 10.7528 12.1084 1.43764 25 1.43764C37.8916 1.43764 48.3813 10.7528 48.3813 22.2038C48.3813 33.6548 37.8916 42.9687 25 42.9687C22.2765 42.9726 19.573 42.5548 17.011 41.7341C16.9081 41.6731 16.7908 41.634 16.6681 41.62C13.4612 40.5325 10.5645 38.829 8.18515 36.6315C8.11102 36.5637 8.02256 36.5094 7.92482 36.4719C7.82708 36.4343 7.72197 36.4143 7.61549 36.4128C7.50902 36.4114 7.40327 36.4285 7.30427 36.4634C7.20527 36.4982 7.11497 36.55 7.03853 36.6159C6.96208 36.6817 6.90098 36.7603 6.85872 36.8471C6.81646 36.9339 6.79387 37.0273 6.79223 37.1218C6.7906 37.2164 6.80994 37.3103 6.84918 37.3982C6.88841 37.4862 6.94676 37.5664 7.02089 37.6343C9.47901 39.9044 12.4543 41.6824 15.748 42.8496V44.8425C15.7434 44.9394 15.761 45.0362 15.7996 45.1269C15.8382 45.2176 15.8971 45.3005 15.9727 45.3705C16.0483 45.4405 16.139 45.4962 16.2395 45.5343C16.34 45.5724 16.4481 45.592 16.5573 45.592C16.6665 45.592 16.7746 45.5724 16.8751 45.5343C16.9755 45.4962 17.0663 45.4405 17.1419 45.3705C17.2175 45.3005 17.2764 45.2176 17.315 45.1269C17.3536 45.0362 17.3712 44.9394 17.3666 44.8425V43.3635C22.3483 44.7675 27.6985 44.7587 32.6743 43.3384V44.8425C32.6697 44.9394 32.6873 45.0362 32.7259 45.1269C32.7645 45.2176 32.8234 45.3005 32.899 45.3705C32.9746 45.4405 33.0654 45.4962 33.1658 45.5343C33.2663 45.5724 33.3744 45.592 33.4836 45.592C33.5929 45.592 33.7009 45.5724 33.8014 45.5343C33.9019 45.4962 33.9926 45.4405 34.0683 45.3705C34.1439 45.3005 34.2027 45.2176 34.2414 45.1269C34.28 45.0362 34.2975 44.9394 34.293 44.8425V42.8145C43.4886 39.5331 50 31.534 50 22.2038C50 9.96068 38.7849 0 25 0Z" fill="white"/>
<path d="M11.8939 14.1909C11.7111 14.0914 11.4914 14.0602 11.2827 14.1041C11.0741 14.148 10.8935 14.2635 10.7804 14.4253C8.72594 17.3919 7.91517 20.907 8.49075 24.3522C9.06633 27.7974 10.9914 30.9519 13.9273 33.2609C16.8631 35.5699 20.6218 36.8854 24.542 36.976C28.4621 37.0666 32.2927 35.9265 35.3599 33.7563C38.427 31.586 40.5342 28.5247 41.3107 25.1108C42.0873 21.6969 41.4835 18.1491 39.6055 15.0915C37.7275 12.034 34.6957 9.66258 31.0434 8.39445C27.3911 7.12632 23.3522 7.04271 19.6373 8.15835C19.4341 8.21951 19.2665 8.34988 19.1715 8.52076C19.0765 8.69165 19.0618 8.88906 19.1307 9.06956C19.1996 9.25006 19.3463 9.39888 19.5388 9.48326C19.7312 9.56765 19.9534 9.58069 20.1567 9.51953C23.5188 8.50688 27.1754 8.58 30.4828 9.726C33.7902 10.872 36.5364 13.0174 38.2382 15.7847C39.94 18.5519 40.4882 21.7637 39.7863 24.8545C39.0844 27.9454 37.1775 30.7173 34.4011 32.6825C31.6247 34.6476 28.1568 35.6799 24.6078 35.5978C21.0588 35.5156 17.6562 34.3243 14.9988 32.2334C12.3414 30.1425 10.5996 27.2862 10.0799 24.167C9.56028 21.0479 10.2961 17.8659 12.1578 15.1811C12.2703 15.0186 12.3057 14.8232 12.2562 14.6376C12.2067 14.452 12.0765 14.2913 11.8939 14.1909Z" fill="white"/>
<path d="M15.3895 10.0748C15.2343 10.1713 15.0819 10.2703 14.9308 10.3718C14.8412 10.4272 14.765 10.4981 14.707 10.5802C14.6489 10.6624 14.6102 10.7541 14.5931 10.8499C14.576 10.9457 14.5808 11.0435 14.6074 11.1376C14.634 11.2317 14.6817 11.32 14.7476 11.3973C14.8136 11.4746 14.8965 11.5392 14.9913 11.5873C15.0861 11.6354 15.1909 11.666 15.2994 11.6772C15.4079 11.6885 15.5178 11.6801 15.6225 11.6526C15.7272 11.6252 15.8246 11.5792 15.9088 11.5174C16.05 11.4259 16.1812 11.3369 16.3209 11.2505C16.4078 11.1961 16.4819 11.1271 16.5388 11.0474C16.5957 10.9677 16.6343 10.8788 16.6525 10.7858C16.6707 10.6928 16.6682 10.5975 16.6449 10.5054C16.6217 10.4133 16.5782 10.3262 16.5171 10.249C16.4559 10.1718 16.3782 10.1061 16.2885 10.0555C16.1987 10.005 16.0986 9.97065 15.9939 9.95448C15.8892 9.9383 15.7819 9.9406 15.6782 9.96124C15.5745 9.98188 15.4764 10.0205 15.3895 10.0748Z" fill="white"/>
<path d="M25.0198 14.9893C24.8052 14.9896 24.5995 15.0656 24.4479 15.2004C24.2963 15.3353 24.2111 15.5181 24.2111 15.7087V16.7904C23.2956 16.7957 22.42 17.1238 21.7769 17.7025C21.1338 18.2812 20.7758 19.0631 20.7818 19.8762C20.7878 20.6893 21.1572 21.467 21.8088 22.0382C22.4604 22.6094 23.3408 22.9273 24.2563 22.922H25.7846C26.2712 22.922 26.7378 23.0936 27.0819 23.3992C27.426 23.7048 27.6192 24.1192 27.6192 24.5514C27.6192 24.9835 27.426 25.398 27.0819 25.7035C26.7378 26.0091 26.2712 26.1808 25.7846 26.1808H22.821C22.6122 26.1885 22.4149 26.2677 22.2702 26.4016C22.1256 26.5356 22.0448 26.714 22.0448 26.8996C22.0448 27.0852 22.1256 27.2636 22.2702 27.3976C22.4149 27.5316 22.6122 27.6107 22.821 27.6184H24.2125V28.6988C24.2212 28.8843 24.3103 29.0596 24.4612 29.1881C24.612 29.3165 24.8129 29.3883 25.0219 29.3883C25.2309 29.3883 25.4318 29.3165 25.5826 29.1881C25.7334 29.0596 25.8225 28.8843 25.8312 28.6988V27.6172C26.7353 27.5966 27.5943 27.2617 28.2234 26.6847C28.8526 26.1076 29.2017 25.3343 29.1958 24.5311C29.1899 23.7278 28.8294 22.9587 28.1918 22.389C27.5542 21.8193 26.6904 21.4945 25.7861 21.4843H24.2563C23.7697 21.4843 23.3031 21.3127 22.959 21.0071C22.615 20.7015 22.4217 20.2871 22.4217 19.8549C22.4217 19.4228 22.615 19.0083 22.959 18.7028C23.3031 18.3972 23.7697 18.2255 24.2563 18.2255H27.2199C27.4287 18.2178 27.626 18.1387 27.7707 18.0047C27.9153 17.8708 27.9961 17.6923 27.9961 17.5067C27.9961 17.3211 27.9153 17.1427 27.7707 17.0087C27.626 16.8748 27.4287 16.7956 27.2199 16.7879H25.8284V15.7087C25.8284 15.5181 25.7432 15.3353 25.5916 15.2004C25.44 15.0656 25.2343 14.9896 25.0198 14.9893Z" fill="white"/>
<path d="M16.2503 21.5395C16.2012 21.5578 16.1539 21.58 16.1092 21.6059C16.0646 21.6318 16.0234 21.6621 15.9864 21.6962C15.8369 21.8294 15.7518 22.0093 15.7494 22.1975C15.7493 22.2451 15.7549 22.2926 15.7663 22.3391C15.7764 22.3856 15.792 22.431 15.8129 22.4745C15.8328 22.518 15.8569 22.5599 15.8848 22.5998C15.9156 22.6384 15.9496 22.6748 15.9864 22.7089C16.0709 22.7843 16.1732 22.842 16.2858 22.878C16.3985 22.9139 16.5188 22.9272 16.6379 22.9167C16.7571 22.9063 16.8721 22.8724 16.9747 22.8176C17.0773 22.7628 17.1649 22.6884 17.2312 22.5998C17.26 22.56 17.285 22.5181 17.3059 22.4745C17.3261 22.4308 17.3417 22.3854 17.3525 22.3391C17.3627 22.2925 17.3679 22.2451 17.368 22.1975C17.3662 22.0092 17.281 21.8291 17.131 21.6962C17.094 21.6621 17.0528 21.6318 17.0082 21.6059C16.9633 21.5803 16.9161 21.5581 16.8671 21.5395C16.8186 21.521 16.7679 21.5076 16.7161 21.4994C16.6119 21.4793 16.5041 21.4793 16.3999 21.4994C16.3486 21.5079 16.2984 21.5214 16.2503 21.5395Z" fill="white"/>
<path d="M32.8112 22.6036C32.8776 22.692 32.9652 22.7662 33.0678 22.8208C33.1704 22.8755 33.2854 22.9093 33.4045 22.9197C33.5236 22.9301 33.6437 22.917 33.7564 22.8812C33.869 22.8454 33.9713 22.7878 34.0559 22.7126C34.0927 22.6789 34.1263 22.6424 34.1561 22.6036C34.1849 22.5637 34.21 22.5218 34.2309 22.4782C34.2511 22.4345 34.2667 22.3892 34.2775 22.3429C34.2879 22.2962 34.2926 22.2488 34.2916 22.2012C34.2898 22.0132 34.2052 21.8332 34.0559 21.6999C34.0188 21.6654 33.9771 21.6351 33.9317 21.6096C33.8875 21.583 33.8402 21.5607 33.7906 21.5432C33.7421 21.5248 33.6915 21.5113 33.6396 21.5031C33.5223 21.4824 33.4014 21.485 33.2854 21.5107C33.1694 21.5364 33.0613 21.5846 32.9687 21.6518C32.8762 21.719 32.8015 21.8036 32.7501 21.8994C32.6987 21.9953 32.6719 22.1001 32.6715 22.2063C32.6721 22.2538 32.6777 22.3013 32.6884 22.3479C32.6992 22.3942 32.7148 22.4395 32.735 22.4833C32.7556 22.5256 32.7811 22.5659 32.8112 22.6036Z" fill="white"/>
</svg>
