<svg width="50" height="50" viewBox="0 0 50 50" fill="none" xmlns="http://www.w3.org/2000/svg">
<path d="M24.9951 0C11.2131 0 0 11.2153 0 25C0 38.7847 11.2131 50 24.9951 50C31.2952 50 37.312 47.6456 41.9418 43.3763C42.3813 42.966 42.4106 42.2821 42.0004 41.8425C41.5902 41.4029 40.9064 41.3736 40.4669 41.7839C36.2375 45.6819 30.7482 47.8312 24.9951 47.8312C12.4048 47.8312 2.16839 37.5928 2.16839 25C2.16839 12.4072 12.4048 2.15905 24.9951 2.15905C37.5855 2.15905 47.8218 12.4072 47.8218 24.9902C47.8218 29.2595 46.64 33.4213 44.4032 37.0262C44.0906 37.5342 44.2469 38.1985 44.7548 38.5209C45.2627 38.8335 45.9269 38.6772 46.2493 38.1692C48.7009 34.2224 50 29.66 50 24.9902C49.9902 11.2153 38.7771 0 24.9951 0Z" fill="white"/>
<path d="M35.4952 17.5752L21.7913 31.9949L14.3875 26.1137C13.9187 25.7425 13.235 25.8206 12.8638 26.2896C12.4926 26.7585 12.5708 27.4424 13.0396 27.8136L21.2248 34.3103C21.4201 34.4666 21.6643 34.5447 21.8988 34.5447C22.182 34.5447 22.475 34.4275 22.6802 34.2028L37.0677 19.0602C37.478 18.6303 37.4584 17.9367 37.0287 17.5264C36.5891 17.1258 35.9054 17.1454 35.4952 17.5752Z" fill="white"/>
</svg>
