<svg width="50" height="50" viewBox="0 0 50 50" fill="none" xmlns="http://www.w3.org/2000/svg">
<path d="M46.5359 2.83567H43.989V0.961924C43.989 0.430862 43.5694 0 43.0523 0H36.0851C35.5679 0 35.1483 0.430862 35.1483 0.961924V2.83567H14.8614V0.961924C14.8614 0.430862 14.4418 0 13.9247 0H6.95745C6.44027 0 6.02068 0.430862 6.02068 0.961924V2.83567H3.47385C1.56128 2.83567 0 4.42886 0 6.39279V13.2164V15.0601V46.0521C0 48.2265 1.72716 50 3.84465 50H46.1553C48.2728 50 50 48.2265 50 46.0521V15.0601V13.2164V6.39279C50.0097 4.42886 48.4484 2.83567 46.5359 2.83567ZM37.0316 1.92385H42.1155V5.29058H37.0316V1.92385ZM7.89422 1.92385H12.9781V5.29058H7.89422V1.92385ZM48.1264 46.0521C48.1264 47.1643 47.2482 48.0761 46.1553 48.0761H3.84465C2.76151 48.0761 1.87353 47.1743 1.87353 46.0521V15.0601V14.1784H37.3341C37.8512 14.1784 38.2708 13.7475 38.2708 13.2164C38.2708 12.6854 37.8512 12.2545 37.3341 12.2545H1.88329V6.39279C1.88329 5.49098 2.59563 4.75952 3.47385 4.75952H6.02068V6.26253C6.02068 6.79359 6.44027 7.22445 6.95745 7.22445H13.9247C14.4418 7.22445 14.8614 6.79359 14.8614 6.26253V4.75952H35.1483V6.26253C35.1483 6.79359 35.5679 7.22445 36.0851 7.22445H43.0523C43.5694 7.22445 43.989 6.79359 43.989 6.26253V4.75952H46.5359C47.4141 4.75952 48.1264 5.49098 48.1264 6.39279V12.2545H42.6619C42.1448 12.2545 41.7252 12.6854 41.7252 13.2164C41.7252 13.7475 42.1448 14.1784 42.6619 14.1784H48.1264V15.0601V46.0521Z" fill="white"/>
<path d="M35.3727 18.6573H40.1444C41.2275 18.6573 42.1155 19.5591 42.1155 20.6814C42.1155 21.2124 42.5351 21.6433 43.0523 21.6433C43.5694 21.6433 43.989 21.2124 43.989 20.6814C43.989 18.507 42.2619 16.7335 40.1444 16.7335H9.86534C7.74785 16.7335 6.02069 18.507 6.02069 20.6814V41.5731C6.02069 43.7475 7.74785 45.521 9.86534 45.521H18.1694C18.6866 45.521 19.1062 45.0902 19.1062 44.5591C19.1062 44.028 18.6866 43.5972 18.1694 43.5972H16.53C16.53 41.3026 16.5203 38.7675 16.5203 36.2024H24.0632C24.0632 38.8176 24.073 41.3727 24.073 43.5972H22.1897C21.6725 43.5972 21.2529 44.028 21.2529 44.5591C21.2529 45.0902 21.6725 45.521 22.1897 45.521H40.1444C42.2619 45.521 43.989 43.7475 43.989 41.5731V24.1583C43.989 23.6272 43.5694 23.1964 43.0523 23.1964C42.5351 23.1964 42.1155 23.6272 42.1155 24.1583V25.9018H35.363C35.363 22.4349 35.363 19.7194 35.3727 18.6573ZM16.5203 18.6573H24.073C24.0632 19.8497 24.0535 22.5451 24.0535 25.9018H16.5105C16.5008 22.4349 16.5105 19.7194 16.5203 18.6573ZM9.86534 18.6573H14.6468C14.637 19.8497 14.6272 22.5451 14.6272 25.9018H8.08939C8.02108 25.9018 7.95277 25.9118 7.89423 25.9218V20.6814C7.89423 19.5691 8.7822 18.6573 9.86534 18.6573ZM7.89423 27.8156C7.96253 27.8256 8.02108 27.8357 8.08939 27.8357H14.6272C14.6272 29.8697 14.6272 32.0741 14.637 34.2685H8.09914C8.03084 34.2685 7.96253 34.2786 7.90398 34.2886V27.8156H7.89423ZM14.6468 43.5972H9.86534C8.7822 43.5972 7.89423 42.6954 7.89423 41.5731V36.1723C7.96253 36.1824 8.02108 36.1924 8.08939 36.1924H14.6272C14.637 38.8176 14.6468 41.3727 14.6468 43.5972ZM16.5105 34.2685C16.5105 32.0441 16.5008 29.8497 16.5008 27.8357H24.0437C24.0437 29.8697 24.0437 32.0741 24.0535 34.2685H16.5105ZM25.9367 27.8357H33.4797C33.4797 29.8697 33.4797 32.0741 33.4894 34.2685H25.9465C25.9367 32.0541 25.9367 29.8597 25.9367 27.8357ZM25.9465 36.2024H33.4894C33.4894 38.8176 33.4992 41.3727 33.4992 43.5972H25.9563C25.9465 41.3026 25.9465 38.7675 25.9465 36.2024ZM40.1444 43.5972H35.3825C35.3825 41.3026 35.3727 38.7675 35.3727 36.2024H42.1155V41.5731C42.1155 42.6854 41.2275 43.5972 40.1444 43.5972ZM42.1155 27.8357V34.2685H35.3727C35.3727 32.0441 35.363 29.8497 35.363 27.8357H42.1155ZM25.9367 25.9018C25.9367 22.4349 25.9367 19.7194 25.9465 18.6573H33.4992C33.4894 19.8497 33.4797 22.5451 33.4797 25.9018H25.9367Z" fill="white"/>
</svg>
